<svg width="24" height="24" viewBox="0 0 24 24" fill="none" xmlns="http://www.w3.org/2000/svg">
<path d="M20.4702 6.20566L20.4703 6.20576C21.1415 6.67557 21.7063 7.38642 22.1026 8.14559C22.4989 8.90477 22.7602 9.77628 22.7602 10.6002V17.3802C22.7602 20.3444 20.3544 22.7502 17.3902 22.7502H6.61023C3.64391 22.7502 1.24023 20.3323 1.24023 17.3702V10.4702C1.24023 9.69684 1.4784 8.86795 1.83737 8.13889C2.19651 7.40947 2.70854 6.71499 3.3188 6.23893C3.31885 6.23889 3.31891 6.23885 3.31896 6.2388L8.3288 2.32893L8.33086 2.32732L8.33087 2.32732C10.1006 0.956103 12.871 0.887316 14.7102 2.17566L20.4702 6.20566ZM20.4702 6.20566L14.7106 2.17594L20.4702 6.20566Z" fill="white" stroke="#D9D9D9" stroke-width="1.5"/>
</svg>
